<svg xmlns="http://www.w3.org/2000/svg" xmlns:xlink="http://www.w3.org/1999/xlink" version="1.1" x="0px" y="0px" viewBox="0 0 100 125" enable-background="new 0 0 100 100" xml:space="preserve"><g><circle cx="51.359" cy="31.165" r="11.429"/><path d="M79.977,16.443c-2.482-0.071-4.55,1.883-4.623,4.365l-0.482,16.811l-11.146,6.696c-0.174-0.02-0.343-0.053-0.522-0.053   H39.512c-0.083,0-0.16,0.02-0.241,0.024c-0.082-0.004-0.159-0.024-0.241-0.024H28.176l4.193-6.667l0.385,1.736   c0.339,1.527,1.852,2.49,3.38,2.151c1.527-0.339,2.491-1.852,2.151-3.379l-2.89-13.017c-0.339-1.527-1.853-2.491-3.38-2.151   c-1.527,0.339-2.491,1.852-2.151,3.379l0.359,1.618c-1.46,0.031-2.878,0.767-3.715,2.097L16.459,46.008   c-0.231,0.367-0.381,0.759-0.496,1.156c-0.189,0.497-0.305,1.031-0.305,1.595c0,2.481,2.012,4.493,4.494,4.493h14.736v25.685   c0,2.552,2.07,4.622,4.623,4.622h23.691c2.553,0,4.625-2.07,4.625-4.622v-26.6l12.906-7.753c0.561-0.337,1.015-0.78,1.365-1.283   c0.996-0.796,1.66-1.993,1.699-3.367l0.541-18.868C84.412,18.584,82.457,16.516,79.977,16.443z"/></g><text x="0" y="115" fill="#000000" font-size="5px" font-weight="bold" font-family="'Helvetica Neue', Helvetica, Arial-Unicode, Arial, Sans-serif">Created by Akshar Pathak</text><text x="0" y="120" fill="#000000" font-size="5px" font-weight="bold" font-family="'Helvetica Neue', Helvetica, Arial-Unicode, Arial, Sans-serif">from the Noun Project</text></svg>