<svg xmlns="http://www.w3.org/2000/svg" xmlns:xlink="http://www.w3.org/1999/xlink" version="1.1" x="0px" y="0px" viewBox="0 0 168.351 326.76250000000005" style="enable-background:new 0 0 168.351 261.41;" xml:space="preserve"><g><ellipse transform="matrix(0.9739 -0.2268 0.2268 0.9739 -11.6707 13.874)" cx="54.542" cy="57.727" rx="22.495" ry="22.494"/><path d="M75.602,87.656c-0.008-0.004-0.017-0.006-0.026-0.009c-0.987-0.459-2.084-0.722-3.245-0.722H33.695   c-0.735,0-1.443,0.109-2.117,0.301c-1.037,0.155-4.027,0.543-7.237,0.537c-3.05,0.04-6.319-0.452-7.702-1.113   c-0.304-0.132-0.515-0.255-0.637-0.338c0-0.012,0-0.025,0-0.038c-0.123-0.716,0.738-4.069,4.343-9.361   c2.766,4.283,5.685,6.912,7.872,7.31c3.174,0.579,6.634-0.432,6.634-0.432s0.701-0.118,1.516-0.453   c-1.31-2.938-3.281-6.644-5.709-8.94c-0.537,0.23-1.066,0.461-1.531,0.661c-0.958,0.414-2.954-0.214-5.13-3.605   c1.214-3.203,0.268-6.952-2.581-9.159c-0.331-0.256-0.679-0.473-1.034-0.67c-0.154-2.301,0.552-3.488,1.289-3.807   c0.466-0.202,0.994-0.432,1.533-0.664c-0.009-3.339-1.363-7.317-2.605-10.282c-0.802,0.364-1.37,0.795-1.37,0.795   s-3.106,1.829-4.859,4.535c-1.049,1.623-1.242,4.809-0.472,8.862c-1.418,0.49-2.717,1.38-3.705,2.654   C3.61,72.36,0.15,79.068,0.001,86.274c-0.036,3.492,1.13,7.059,3.173,9.673c3.099,3.972,7.169,5.669,10.771,6.638   c3.666,0.947,7.224,1.172,10.397,1.181c0.556-0.001,1.096-0.011,1.626-0.025v40.367v18.939v86c0,6.828,5.536,12.363,12.364,12.363   c6.828,0,12.364-5.535,12.364-12.363v-78.273h4.636v78.273c0,6.828,5.536,12.363,12.364,12.363c6.827,0,12.363-5.535,12.363-12.363   v-72.891c1.502-0.616,2.833-1.688,3.756-3.172c11.446-18.43,15.89-33.587,15.898-46.123c0.056-14.139-5.909-24.369-11.829-30.411   C81.959,90.337,76.243,87.938,75.602,87.656z M80.058,144.969v-0.861v-31.674c2.074,3.527,3.625,8.097,3.653,14.428   C83.717,131.706,82.74,137.699,80.058,144.969z"/><path d="M126.934,0C104.06,0,85.518,14.459,85.518,32.295c0,8.289,4.005,15.85,10.587,21.566   c3.462,3.008,3.565,11.629-10.171,17.871c14.569,5.828,34.348-7.143,41.001-7.143c22.874,0,41.416-14.459,41.416-32.295   C168.351,14.459,149.808,0,126.934,0z"/><path d="M33.233,73.285c-0.508,0.22-1.094,0.472-1.687,0.728c2.449,2.453,4.344,6.047,5.634,8.921   c1.222-0.721,2.292-1.989,1.357-4.148C36.763,74.683,34.464,72.752,33.233,73.285z"/><path d="M21.449,46.559c1.21,2.905,2.533,6.752,2.641,10.213c0.593-0.256,1.179-0.51,1.688-0.729   c1.23-0.532,1.399-3.529-0.377-7.633C24.467,46.251,22.811,46.161,21.449,46.559z"/></g><text x="0" y="276.41" fill="#000000" font-size="5px" font-weight="bold" font-family="'Helvetica Neue', Helvetica, Arial-Unicode, Arial, Sans-serif">Created by Gan Khoon Lay</text><text x="0" y="281.41" fill="#000000" font-size="5px" font-weight="bold" font-family="'Helvetica Neue', Helvetica, Arial-Unicode, Arial, Sans-serif">from the Noun Project</text></svg>