<svg xmlns="http://www.w3.org/2000/svg" version="1.1" viewBox="-5.0 -10.0 110.0 135.0">
 <path d="m79.91 45.488-2.5391-0.011719c-4.8984-0.10937-9.2305-2.168-12.336-5.3711-2.8945-2.9883-4.7305-6.9805-4.9688-11.328-3.3633-0.37891-6.707-0.56641-10.078-0.56641-3.3672 0-6.7109 0.1875-10.074 0.56641-0.23828 4.3438-2.0742 8.3359-4.9727 11.328-3.1055 3.207-7.4375 5.2656-12.324 5.3711l-2.5352 0.011719c-3.5156 0-6.6758 1.3242-9.0664 3.5156-2.4453 2.2383-4.1016 5.3906-4.5195 8.9688l-1.7852 15.074c-0.3125 2.6641-0.039063 5.1953 0.76172 7.5508 0.83203 2.4531 2.2305 4.7344 4.1133 6.793 1.8594 2.0234 3.9688 3.5547 6.2891 4.5781 2.3164 1.0195 4.8672 1.5352 7.6172 1.5352h52.996c2.75 0 5.3008-0.51562 7.6172-1.5352 2.3203-1.0234 4.4297-2.5547 6.3242-4.6172 1.8867-2.0742 3.2617-4.3281 4.082-6.7539 0.79688-2.3555 1.0742-4.8867 0.76172-7.5508l-1.7852-15.074c-0.42188-3.5781-2.0781-6.7305-4.5195-8.9688-2.3906-2.1875-5.5508-3.5156-9.0664-3.5156zm-29.91-2.0391c5.9727 0 11.383 2.4219 15.301 6.3359 3.9141 3.9141 6.3359 9.3242 6.3359 15.301 0 5.9688-2.4219 11.379-6.3359 15.293-3.9219 3.9219-9.3281 6.3438-15.301 6.3438-5.9688 0-11.379-2.4219-15.297-6.3398-3.918-3.9102-6.3398-9.3203-6.3398-15.297 0-5.9648 2.4219-11.375 6.3438-15.297 3.9219-3.918 9.3281-6.3398 15.293-6.3398zm13.176 8.457c-3.3711-3.3711-8.0312-5.457-13.176-5.457-5.1484 0-9.8086 2.0859-13.176 5.4531-3.375 3.375-5.4609 8.0352-5.4609 13.184 0 5.1445 2.0859 9.8086 5.457 13.176 3.3672 3.375 8.0273 5.4609 13.176 5.4609 5.1484 0 9.8086-2.0859 13.18-5.457 3.3711-3.3711 5.457-8.0312 5.457-13.18 0-5.1445-2.0859-9.8047-5.4609-13.176zm-14.594-45.41c-14.547 0-28.641 3.5156-40.289 10.59-1.832 1.1133-3.1484 2.7305-3.918 4.5938-0.8125 1.9727-1.0234 4.2305-0.59766 6.4883l1.1797 6.2969c0.32031 1.6953 1.2031 3.1484 2.4375 4.1719 1.2305 1.0234 2.8242 1.6211 4.5547 1.6211h10.27c0.26172 0 0.50391-0.015624 0.76953-0.058593 1.1133-0.19922 2.0391-0.76172 2.6914-1.543 0.65234-0.78125 1.043-1.7891 1.043-2.875 0-0.26953-0.023437-0.54297-0.070312-0.81641l-0.54688-3.082c-0.29688-1.6719 0.11328-3.3164 1.0156-4.6172 0.90234-1.2969 2.3047-2.2539 3.9844-2.5547 6.4922-1.168 12.699-1.7539 18.883-1.7539 6.1836 0 12.391 0.58594 18.887 1.7539 1.6797 0.30078 3.082 1.2578 3.9844 2.5547s1.3164 2.9414 1.0195 4.6172l-0.54688 3.082c-0.046875 0.27344-0.070312 0.54688-0.070312 0.81641 0 1.0859 0.39062 2.0938 1.043 2.875 0.65625 0.78125 1.5781 1.3398 2.6406 1.5312 0.24609 0.046875 0.51953 0.070312 0.82031 0.070312h10.27c1.7305 0 3.3242-0.60156 4.5547-1.6211 1.2344-1.0234 2.1172-2.4766 2.4375-4.1719l1.1836-6.2969c0.43359-2.3125 0.24609-4.6914-0.59375-6.7266-0.74609-1.8125-2.0273-3.3516-3.8477-4.3086-13.477-7.0742-28.547-10.637-43.184-10.637z"/>
<text x="0.0" y="117.5" font-size="5.0" font-weight="bold" font-family="Arbeit Regular, Helvetica, Arial-Unicode, Arial, Sans-serif" fill="#000000">Created by Suharsono</text><text x="0.0" y="122.5" font-size="5.0" font-weight="bold" font-family="Arbeit Regular, Helvetica, Arial-Unicode, Arial, Sans-serif" fill="#000000">from Noun Project</text></svg>