<?xml version="1.0" encoding="utf-8"?>
<!-- Generator: Adobe Illustrator 23.0.4, SVG Export Plug-In . SVG Version: 6.00 Build 0)  -->
<svg version="1.1" id="Layer_1" xmlns="http://www.w3.org/2000/svg" xmlns:xlink="http://www.w3.org/1999/xlink" x="0px" y="0px"
	 viewBox="0 0 32 32" style="enable-background:new 0 0 32 32;" xml:space="preserve">
<style type="text/css">
	.st0{fill:#008AD0;}
	.st1{fill:#333333;}
</style>
<g>
	<path class="st1" d="M22,31H10c-1.654,0-3-1.346-3-3V4c0-1.654,1.346-3,3-3h12c1.654,0,3,1.346,3,3v5c0,0.552-0.447,1-1,1
		s-1-0.448-1-1V4c0-0.551-0.448-1-1-1H10C9.448,3,9,3.449,9,4v24c0,0.551,0.448,1,1,1h12c0.552,0,1-0.449,1-1v-9.057
		c0-0.552,0.447-1,1-1s1,0.448,1,1V28C25,29.654,23.654,31,22,31z"/>
</g>
<g>
	<path class="st1" d="M22,28H10c-1.654,0-3-1.346-3-3c0-0.552,0.447-1,1-1s1,0.448,1,1c0,0.551,0.448,1,1,1h12c0.552,0,1-0.449,1-1
		c0-0.552,0.447-1,1-1s1,0.448,1,1C25,26.654,23.654,28,22,28z"/>
</g>
<g>
	<path class="st1" d="M16,6h-3c-0.553,0-1-0.448-1-1s0.447-1,1-1h3c0.553,0,1,0.448,1,1S16.553,6,16,6z"/>
</g>
<g>
	<path class="st1" d="M20,6h-1c-0.553,0-1-0.448-1-1s0.447-1,1-1h1c0.553,0,1,0.448,1,1S20.553,6,20,6z"/>
</g>
<g>
	<path class="st0" d="M19,23c-0.404,0-0.769-0.243-0.924-0.616c-0.155-0.374-0.069-0.805,0.217-1.091
		c0.521-0.522,0.831-1.192,0.925-1.998C16.631,18.264,15,16.246,15,14c0-3.309,3.589-6,8-6s8,2.691,8,6
		c0,2.864-2.695,5.306-6.37,5.872C23.346,22.967,19.104,23.012,19,23z M23,10c-3.252,0-6,1.832-6,4c0,1.554,1.389,2.982,3.538,3.641
		c0.411,0.126,0.695,0.5,0.707,0.93c0.019,0.733-0.075,1.422-0.276,2.053c0.843-0.31,1.689-0.874,1.938-1.902
		c0.101-0.417,0.455-0.723,0.882-0.761C26.76,17.694,29,15.991,29,14C29,11.832,26.252,10,23,10z"/>
</g>
</svg>
