<svg xmlns="http://www.w3.org/2000/svg" xmlns:xlink="http://www.w3.org/1999/xlink" version="1.1" x="0px" y="0px" viewBox="0 0 3872.983 4841.22875" style="enable-background:new 0 0 3872.983 3872.983;" xml:space="preserve"><g><g><g><g><g><path style="" d="M3209.876,1603.829c-9.72,0-19.522-2.417-28.5-7.442l-180.92-101.319       c-28.118-15.761-38.169-51.319-22.406-79.463c15.76-28.144,51.318-38.166,79.463-22.406l139.597,78.173l189.375-217       l-221.091-261.015c-20.841-24.604-17.793-61.425,6.81-82.265c24.601-20.839,61.422-17.765,82.264,6.81l253.519,299.29       c18.643,22.022,18.425,54.368-0.549,76.114l-253.52,290.504C3242.497,1596.883,3226.297,1603.829,3209.876,1603.829z" fill-rule="evenodd" clip-rule="evenodd"/></g><g><path style="" d="M1740.796,1828.269c-318.567,0-577.743-259.173-577.743-577.74       s259.176-577.744,577.743-577.744c179.328,0,347.946,83.364,457.147,224.469h1011.962c32.235,0,58.376,26.141,58.376,58.377       c0,32.237-26.141,58.376-58.376,58.376H2168.343c-19.166,0-37.124-9.419-48.024-25.179       c-86.246-124.77-228.12-199.289-379.523-199.289c-254.206,0-460.991,206.813-460.991,460.991       c0,254.177,206.814,460.991,460.991,460.991c165.269,0,318.813-89.294,400.775-233.064c5.273-9.225,12.933-16.832,22.187-22.02       l112.96-63.265c17.71-9.938,39.319-9.911,57.031,0l152.418,85.34l152.392-85.34c17.711-9.938,39.32-9.911,57.031,0       l152.392,85.34l152.392-85.34c28.115-15.731,63.702-5.709,79.462,22.406c15.76,28.118,5.713,63.704-22.405,79.465       L2876.51,1596.36c-17.71,9.912-39.319,9.912-57.03,0l-152.392-85.34l-152.389,85.34c-17.711,9.939-39.319,9.912-57.03,0       l-152.418-85.34l-70.705,39.594C2130.012,1722.31,1942.337,1828.269,1740.796,1828.269z" fill-rule="evenodd" clip-rule="evenodd"/></g><g><path style="" d="M1719.68,1480.022c-130.591,0-236.853-106.262-236.853-236.853       c0-130.589,106.261-236.851,236.853-236.851c130.589,0,236.853,106.262,236.853,236.851       C1956.534,1373.76,1850.269,1480.022,1719.68,1480.022L1719.68,1480.022z M1719.68,1123.068       c-66.228,0-120.101,53.873-120.101,120.101s53.873,120.101,120.101,120.101s120.101-53.873,120.101-120.101       S1785.908,1123.068,1719.68,1123.068z" fill-rule="evenodd" clip-rule="evenodd"/></g></g><g><path style="" d="M2302.997,2656.977c-32.237,0-58.376-26.139-58.376-58.374      c0-32.237,26.139-58.376,58.376-58.376c73.532,0,133.363-59.831,133.363-133.365c0-73.531-59.83-133.363-133.363-133.363      l-370.519,0.659c-0.328,0-0.685,0-1.042,0c-87.536,0-164.529-18.836-242.235-59.254l-233.091-121.227      c-61.256-31.852-119.387-46.074-188.469-46.074H913.818c-32.235,0-58.376-26.139-58.376-58.373      c0-32.237,26.141-58.377,58.376-58.377h353.851c87.589,0,164.61,18.836,242.315,59.227l233.091,121.225      c61.478,31.99,120.185,46.269,189.186,46.074l370.626-0.658c138.003,0,250.196,112.193,250.196,250.088      C2553.112,2544.783,2440.916,2656.977,2302.997,2656.977z" fill-rule="evenodd" clip-rule="evenodd"/></g><g><path style="" d="M2047.198,3211.819h-95.772c-67.629,0-125.923-10.871-189.047-35.201      l-576.893-222.573c-49.725-19.193-93.713-27.375-147.01-27.375l-119.056-0.027c-32.235,0-58.376-26.14-58.376-58.376      c0-32.235,26.141-58.376,58.376-58.376h119.03c67.63,0,125.95,10.847,189.047,35.201l576.893,222.574      c49.754,19.192,93.712,27.404,147.036,27.404h95.772c53.215,0,97.12-8.156,146.791-27.295      c61.259-23.586,146.653-54.585,245.556-90.446c338.063-122.654,848.945-308.023,1027.64-429.579      c52.391-35.64,70.321-108.293,39.924-162.001c-33.416-59.063-130.864-93.714-304.288-13.783      c-1.593,0.741-3.213,1.399-4.86,1.977l-785.708,279.658c-6.288,2.225-12.906,3.376-19.578,3.376h-748.366      c-32.235,0-58.376-26.139-58.376-58.374c0-32.237,26.141-58.376,58.376-58.376h738.289l773.766-275.403      c243.935-111.562,393.58-40.529,452.369,63.455c60.544,107.059,27.209,245.886-75.922,316.013      c-190.779,129.767-689.415,310.688-1053.48,442.787c-98.298,35.667-183.199,66.476-243.414,89.649      C2172.929,3201.001,2114.718,3211.819,2047.198,3211.819z" fill-rule="evenodd" clip-rule="evenodd"/></g><g><path style="" d="M734.518,3125.793H475.92c-131.058,0-237.704-106.619-237.704-237.703      v-915.447c0-131.058,106.619-237.704,237.704-237.704l258.598,0.027c131.057,0,237.703,106.619,237.703,237.704v915.449      C972.22,3019.175,865.575,3125.793,734.518,3125.793L734.518,3125.793z M475.92,1851.692      c-66.697,0-120.954,54.256-120.954,120.951v915.447c0,66.697,54.256,120.954,120.954,120.954h258.598      c66.694,0,120.951-54.257,120.951-120.954v-915.447c0-66.695-54.257-120.951-120.951-120.951H475.92z" fill-rule="evenodd" clip-rule="evenodd"/></g></g></g></g><text x="0" y="3887.983" fill="#000000" font-size="5px" font-weight="bold" font-family="'Helvetica Neue', Helvetica, Arial-Unicode, Arial, Sans-serif">Created by Graphixs_Art</text><text x="0" y="3892.983" fill="#000000" font-size="5px" font-weight="bold" font-family="'Helvetica Neue', Helvetica, Arial-Unicode, Arial, Sans-serif">from the Noun Project</text></svg>