<svg xmlns="http://www.w3.org/2000/svg" version="1.1" viewBox="-5.0 -10.0 110.0 135.0">
 <path d="m9.2695 44.484h9.5234c1.1055 0 2 0.89453 2 2v47.391h16.141v-28.176c0-1.1055 0.89453-2 2-2h22.117c1.1055 0 2 0.89453 2 2v28.176h16.141v-47.391c0-1.1055 0.89453-2 2-2h9.5234c-13.574-12.555-27.148-25.109-40.727-37.66l-40.727 37.66zm69.977-16.035v-14.891h-9.125v6.4531zm-13.125-12.141v-4.75c0-1.1055 0.89453-2 2-2h13.125c1.1055 0 2 0.89453 2 2v20.59l13.77 12.734c0.48438 0.36719 0.80078 0.94531 0.80078 1.6016 0 1.1055-0.89453 2-2 2h-12.617v47.391c0 1.1055-0.89453 2-2 2h-62.406c-1.1055 0-2-0.89453-2-2v-47.391h-12.617c-0.53516-0.011719-1.0703-0.22656-1.4609-0.64844-0.74609-0.80859-0.69531-2.0664 0.10938-2.8125l45.812-42.367c0.75391-0.70703 1.9414-0.71875 2.7109-0.007812l14.77 13.66zm-25.18 77.566h18.117v-26.172h-18.117z"/>
<text x="0.0" y="117.5" font-size="5.0" font-weight="bold" font-family="Arbeit Regular, Helvetica, Arial-Unicode, Arial, Sans-serif" fill="#000000">Created by Tsundere Project</text><text x="0.0" y="122.5" font-size="5.0" font-weight="bold" font-family="Arbeit Regular, Helvetica, Arial-Unicode, Arial, Sans-serif" fill="#000000">from Noun Project</text></svg>