<svg xmlns="http://www.w3.org/2000/svg" xmlns:xlink="http://www.w3.org/1999/xlink" version="1.1" x="0px" y="0px" viewBox="0 0 100 125" enable-background="new 0 0 100 100" xml:space="preserve"><polygon points="73.981,35.499 73.981,51.078 88.026,51.078 91.212,44.26 85.442,35.499 "/><rect x="27.903" y="35.499" width="44.543" height="15.58"/><path d="M94.67,39.461l-5.887-8.489c-0.299-0.426-0.753-0.632-1.224-0.68h-0.894l1.612-6.022c0.027-0.101-0.035-0.208-0.136-0.233  l-10.257-2.739c-0.101-0.051-0.187,0.05-0.214,0.136l-0.485,1.845l-8.431-4.856c-0.09-0.051-0.2,0.001-0.253,0.078l-1.962,3.4  v-2.934c0-0.106-0.071-0.194-0.175-0.194H55.74c-0.104,0-0.175,0.093-0.175,0.194v4.682l-3.652-5.77  c-0.055-0.086-0.184-0.109-0.271-0.058l-3.924,2.486l-8.042-4.643c-0.022-0.025-0.05-0.039-0.078-0.039s-0.055,0.014-0.078,0.039  c-0.046,0-0.071,0.033-0.097,0.058l-3.05,5.265h-9.635c-0.104,0-0.194,0.073-0.194,0.175v6.546l-8.917-4.002  c-0.095-0.05-0.19,0.003-0.233,0.097l-2.914,6.488h-1.981c-0.48,0.061-0.957,0.241-1.263,0.68l-5.905,8.489  c-0.562,0.806-0.391,1.929,0.389,2.525c0.779,0.596,1.866,0.413,2.428-0.389l5.691-8.139h72.342l5.672,8.139  c0.562,0.806,1.649,0.987,2.429,0.389C95.061,41.39,95.231,40.267,94.67,39.461z M75.302,30.292H74.37l1.709-2.933L75.302,30.292z"/><polygon points="26.349,35.499 14.519,35.499 8.75,44.26 11.936,51.078 26.349,51.078 "/><polygon points="27.476,84.374 72.485,84.374 87.308,52.612 12.654,52.612 "/><text x="0" y="115" fill="#000000" font-size="5px" font-weight="bold" font-family="'Helvetica Neue', Helvetica, Arial-Unicode, Arial, Sans-serif">Created by Ben Avery</text><text x="0" y="120" fill="#000000" font-size="5px" font-weight="bold" font-family="'Helvetica Neue', Helvetica, Arial-Unicode, Arial, Sans-serif">from the Noun Project</text></svg>