<svg xmlns="http://www.w3.org/2000/svg" data-name="Layer 1" viewBox="0 0 100 125" x="0px" y="0px"><title>bank_7</title><path d="M47.79,64.1a3.36,3.36,0,0,0-.15,3c.19.46.44,1,.68,1.73H51v3.38H49a11,11,0,0,1-.63,4.49h.37a5.15,5.15,0,0,1,3.84,1.63c.15.13.35.32.42.36.69,0,1-.94,1-1l3.21,1.06A4.64,4.64,0,0,1,53,82a3.81,3.81,0,0,1-2.72-1.27A1.84,1.84,0,0,0,48.77,80,7.37,7.37,0,0,0,45.4,81.4a1.69,1.69,0,0,1-2.28-2.48,8.8,8.8,0,0,0,2.5-6.76H43.37V68.78H44.7c-.06-.14-.12-.27-.17-.4a6.71,6.71,0,0,1,.32-5.94,6.26,6.26,0,0,1,4.63-3.16,7.14,7.14,0,0,1,.93-.06,6.89,6.89,0,0,1,6.88,6.88H53.91a3.5,3.5,0,0,0-3.5-3.5,3.87,3.87,0,0,0-.48,0A2.91,2.91,0,0,0,47.79,64.1ZM71.86,49.93V74.55h3.93V82H62.37V74.55h4.25V49.93H33.38V74.55h4.24V82H24.21V74.55h3.93V49.93H23.92a2,2,0,0,1-1.48-3.41L48.52,18.64a2,2,0,0,1,3,0L77.56,46.52a2,2,0,0,1-1.48,3.41ZM55.29,35.55A5.29,5.29,0,1,0,50,40.84,5.29,5.29,0,0,0,55.29,35.55Z"/><text x="0" y="115" fill="#000000" font-size="5px" font-weight="bold" font-family="'Helvetica Neue', Helvetica, Arial-Unicode, Arial, Sans-serif">Created by Mello</text><text x="0" y="120" fill="#000000" font-size="5px" font-weight="bold" font-family="'Helvetica Neue', Helvetica, Arial-Unicode, Arial, Sans-serif">from the Noun Project</text></svg>