<svg xmlns="http://www.w3.org/2000/svg" xmlns:xlink="http://www.w3.org/1999/xlink" version="1.1" x="0px" y="0px" viewBox="0 0 100 125" style="enable-background:new 0 0 100 100;" xml:space="preserve"><g><path d="M42.5,66.1h5.4V51.4c0-5.9-4.8-10.6-10.6-10.6s-10.6,4.8-10.6,10.6v14.8h4.2H42.5z M33.6,63.7v-0.5c0.6-1.4,2-2.3,3.6-2.3   c1.8,0,3.3,1.2,3.8,2.8H33.6z M29,63.7V51.4c0-4.5,3.7-8.2,8.2-8.2c4.5,0,8.2,3.7,8.2,8.2v12.4h-1.9c-0.6-3-3.2-5.2-6.3-5.2   c-2.7,0-5,1.6-5.9,4c0,0,0,0,0,0c-0.2,0.4-0.3,0.8-0.4,1.2H29z"/><path d="M42.9,74h-4.3c-0.7,0-1.2,0.5-1.2,1.2s0.5,1.2,1.2,1.2h4.3c0.7,0,1.2-0.5,1.2-1.2S43.6,74,42.9,74z"/><path d="M46.1,74c-0.7,0-1.2,0.5-1.2,1.2s0.5,1.2,1.2,1.2h1.3c0.7,0,1.2-0.5,1.2-1.2S48,74,47.4,74H46.1z"/><path d="M76.3,78.7h-2.9v-2.3c0-1.8-1.4-3.3-3.2-3.5V56.7c0-0.4-0.2-0.8-0.6-1V23.6c0-4.8-1.9-9.4-5.3-12.8   c-3.4-3.4-8-5.3-12.8-5.3c-10,0-18.1,8.1-18.1,18.1v6.8h-3c-0.7,0-1.2,0.5-1.2,1.2v6c-4.7,2.7-7.9,7.8-7.9,13.6v35.6   c0,1.9,1.6,3.5,3.5,3.5h6.2h12.1h6.2c0.6,0,1.1-0.2,1.6-0.4c0.2,0.2,0.5,0.4,0.9,0.4h27.9c0.7,0,1.2-0.5,1.2-1.2v-5.7   C81.1,80.8,78.9,78.7,76.3,78.7z M71,76.3v2.3H60.8v-2.3c0-0.6,0.5-1.1,1.1-1.1h0.9c0,0,0,0,0,0H69c0,0,0,0,0,0h0.9   C70.5,75.3,71,75.7,71,76.3z M55.5,78.7c-0.9,0-1.8,0.3-2.5,0.7V51.2c0-5.8-3.2-10.9-7.9-13.6v-6c0-0.7-0.5-1.2-1.2-1.2h-3v-6.8   c0-5.9,4.8-10.7,10.7-10.7c5.9,0,10.7,4.8,10.7,10.7v32.1c-0.4,0.2-0.6,0.6-0.6,1v16.1c-1.8,0.1-3.2,1.6-3.2,3.5v2.3H55.5z    M67.8,57.9v14.9H64V57.9H67.8z M35.9,23.6c0-8.6,7-15.7,15.7-15.7c4.2,0,8.1,1.6,11.1,4.6c3,3,4.6,6.9,4.6,11.1v32h-2.6v-32   c0-7.2-5.9-13.1-13.1-13.1c-7.2,0-13.1,5.9-13.1,13.1v6.8h-2.6V23.6z M31.7,32.7h2.9c0,0,0,0,0,0h5c0,0,0,0,0,0h3v3.7   c-1.7-0.6-3.6-1-5.5-1c-1.9,0-3.8,0.4-5.5,1V32.7z M37.2,37.8c7.4,0,13.4,6,13.4,13.4v26.4H23.9V51.2   C23.9,43.8,29.9,37.8,37.2,37.8z M33.6,87.9V86c0-0.6,0.5-1,1-1h5.2c0.6,0,1,0.5,1,1v1.9H33.6z M49.5,87.9h-6.2V86   c0-1.9-1.5-3.4-3.4-3.4h-5.2c-1.9,0-3.4,1.5-3.4,3.4v1.9H25c-0.6,0-1.1-0.5-1.1-1.1V80h26.8v6.8C50.6,87.4,50.1,87.9,49.5,87.9z    M78.7,87.9H53.2v-4.5c0-1.3,1.1-2.4,2.4-2.4h4.1c0,0,0,0,0,0s0,0,0,0h12.6c0,0,0,0,0,0s0,0,0,0h4.1c1.3,0,2.4,1.1,2.4,2.4V87.9z"/></g><text x="0" y="115" fill="#000000" font-size="5px" font-weight="bold" font-family="'Helvetica Neue', Helvetica, Arial-Unicode, Arial, Sans-serif">Created by wendy</text><text x="0" y="120" fill="#000000" font-size="5px" font-weight="bold" font-family="'Helvetica Neue', Helvetica, Arial-Unicode, Arial, Sans-serif">from the Noun Project</text></svg>