<svg xmlns="http://www.w3.org/2000/svg" data-name="3" viewBox="0 0 64 80" x="0px" y="0px"><title>Recycling</title><path d="M32.54926,18.68378l1.60247,2.6278-2.92065,1.666,12.67731,1.75128L47.38727,13.7597l-2.97144,1.69538L40.04669,8.13251H26.651l-8.56683,13.1687,7.94092,7.67224Zm6.94683-9.58087L44.07,16.77045l1.64184-.93726-2.481,7.82294-9.04113-1.249,1.3106-.74865-2.93487-4.81128-.01282.0202-.32172-.51392-3.94891-6.3114L27.694,9.10291ZM21.27509,39.03l2.97979,1.55786L18.88019,28.97345,7.77,31.97156l3.03186,1.58465L7,41.18872l7.23645,11.27283,15.70978.0954L32.11285,41.7298l-12.18347.0683Zm-3.13471,4.29492-3.178,6.73267-.47272,1.002-6.37555-9.9317,3.98157-7.99115L10.42,32.26135l7.92346-2.13818,3.83307,8.28308-1.338-.69849-2.46338,5.06891.02393-.00012Zm31.80444-16.567L39.31586,29.749l5.59832,10.82135-3.07739.05939.03333-3.36224L33.96753,47.3338l7.72015,8.53363.03351-3.42084,8.52661-.08252L57,40.79468Zm-.25756,24.64148-8.92774.08545-.01806,1.89038-5.50593-6.08593,5.63605-7.179-.014,1.50934L46.49225,41.51l-.011-.02124.60608-.0188,7.44141-.22925,1.10748-.03436Z"/><text x="0" y="79" fill="#000000" font-size="5px" font-weight="bold" font-family="'Helvetica Neue', Helvetica, Arial-Unicode, Arial, Sans-serif">Created by Jajang Nurrahman</text><text x="0" y="84" fill="#000000" font-size="5px" font-weight="bold" font-family="'Helvetica Neue', Helvetica, Arial-Unicode, Arial, Sans-serif">from the Noun Project</text></svg>